<mxfile host="app.diagrams.net" modified="2024-03-05T03:36:33.583Z" agent="Mozilla/5.0 (Macintosh; Intel Mac OS X 10_15_7) AppleWebKit/605.1.15 (KHTML, like Gecko) Version/16.4 Safari/605.1.15" etag="cofrCp9QS7H6hidZPe8f" version="24.0.0" type="github">
  <diagram name="第 1 页" id="dk5ZNBicJ9a32ZiyVJig">
    <mxGraphModel dx="783" dy="581" grid="1" gridSize="10" guides="1" tooltips="1" connect="1" arrows="1" fold="1" page="1" pageScale="1" pageWidth="827" pageHeight="1169" math="0" shadow="0">
      <root>
        <mxCell id="0" />
        <mxCell id="1" parent="0" />
        <mxCell id="8Tk4UFQ8TMU7V8v94MP9-12" style="edgeStyle=orthogonalEdgeStyle;rounded=0;orthogonalLoop=1;jettySize=auto;html=1;entryX=0.5;entryY=0;entryDx=0;entryDy=0;" edge="1" parent="1" source="8Tk4UFQ8TMU7V8v94MP9-2" target="8Tk4UFQ8TMU7V8v94MP9-5">
          <mxGeometry relative="1" as="geometry" />
        </mxCell>
        <mxCell id="8Tk4UFQ8TMU7V8v94MP9-13" style="edgeStyle=orthogonalEdgeStyle;rounded=0;orthogonalLoop=1;jettySize=auto;html=1;" edge="1" parent="1" source="8Tk4UFQ8TMU7V8v94MP9-2" target="8Tk4UFQ8TMU7V8v94MP9-4">
          <mxGeometry relative="1" as="geometry" />
        </mxCell>
        <mxCell id="8Tk4UFQ8TMU7V8v94MP9-2" value="&lt;font style=&quot;font-size: 18px;&quot; face=&quot;Times New Roman&quot;&gt;强化学习算法&lt;/font&gt;" style="rounded=1;whiteSpace=wrap;html=1;fillColor=#fad7ac;strokeColor=#b46504;" vertex="1" parent="1">
          <mxGeometry x="280" y="120" width="120" height="50" as="geometry" />
        </mxCell>
        <mxCell id="8Tk4UFQ8TMU7V8v94MP9-16" style="edgeStyle=orthogonalEdgeStyle;rounded=0;orthogonalLoop=1;jettySize=auto;html=1;" edge="1" parent="1" source="8Tk4UFQ8TMU7V8v94MP9-4" target="8Tk4UFQ8TMU7V8v94MP9-10">
          <mxGeometry relative="1" as="geometry" />
        </mxCell>
        <mxCell id="8Tk4UFQ8TMU7V8v94MP9-17" style="edgeStyle=orthogonalEdgeStyle;rounded=0;orthogonalLoop=1;jettySize=auto;html=1;" edge="1" parent="1" source="8Tk4UFQ8TMU7V8v94MP9-4" target="8Tk4UFQ8TMU7V8v94MP9-11">
          <mxGeometry relative="1" as="geometry">
            <Array as="points">
              <mxPoint x="445" y="280" />
              <mxPoint x="625" y="280" />
            </Array>
          </mxGeometry>
        </mxCell>
        <mxCell id="8Tk4UFQ8TMU7V8v94MP9-4" value="&lt;font size=&quot;4&quot; face=&quot;Times New Roman&quot;&gt;基于模型强化学习&lt;/font&gt;" style="rounded=1;whiteSpace=wrap;html=1;fillColor=#fad7ac;strokeColor=#b46504;" vertex="1" parent="1">
          <mxGeometry x="370" y="210" width="150" height="50" as="geometry" />
        </mxCell>
        <mxCell id="8Tk4UFQ8TMU7V8v94MP9-14" style="edgeStyle=orthogonalEdgeStyle;rounded=0;orthogonalLoop=1;jettySize=auto;html=1;" edge="1" parent="1" source="8Tk4UFQ8TMU7V8v94MP9-5" target="8Tk4UFQ8TMU7V8v94MP9-6">
          <mxGeometry relative="1" as="geometry" />
        </mxCell>
        <mxCell id="8Tk4UFQ8TMU7V8v94MP9-15" style="edgeStyle=orthogonalEdgeStyle;rounded=0;orthogonalLoop=1;jettySize=auto;html=1;" edge="1" parent="1" source="8Tk4UFQ8TMU7V8v94MP9-5" target="8Tk4UFQ8TMU7V8v94MP9-8">
          <mxGeometry relative="1" as="geometry" />
        </mxCell>
        <mxCell id="8Tk4UFQ8TMU7V8v94MP9-5" value="&lt;font size=&quot;4&quot; face=&quot;Times New Roman&quot;&gt;无模型强化学习&lt;/font&gt;" style="rounded=1;whiteSpace=wrap;html=1;fillColor=#fad7ac;strokeColor=#b46504;" vertex="1" parent="1">
          <mxGeometry x="170" y="210" width="150" height="50" as="geometry" />
        </mxCell>
        <mxCell id="8Tk4UFQ8TMU7V8v94MP9-22" style="edgeStyle=orthogonalEdgeStyle;rounded=0;orthogonalLoop=1;jettySize=auto;html=1;entryX=1;entryY=0.5;entryDx=0;entryDy=0;" edge="1" parent="1" source="8Tk4UFQ8TMU7V8v94MP9-6" target="8Tk4UFQ8TMU7V8v94MP9-18">
          <mxGeometry relative="1" as="geometry" />
        </mxCell>
        <mxCell id="8Tk4UFQ8TMU7V8v94MP9-23" style="edgeStyle=orthogonalEdgeStyle;rounded=0;orthogonalLoop=1;jettySize=auto;html=1;entryX=1;entryY=0.5;entryDx=0;entryDy=0;" edge="1" parent="1" source="8Tk4UFQ8TMU7V8v94MP9-6" target="8Tk4UFQ8TMU7V8v94MP9-20">
          <mxGeometry relative="1" as="geometry" />
        </mxCell>
        <mxCell id="8Tk4UFQ8TMU7V8v94MP9-24" style="edgeStyle=orthogonalEdgeStyle;rounded=0;orthogonalLoop=1;jettySize=auto;html=1;entryX=1;entryY=0.5;entryDx=0;entryDy=0;" edge="1" parent="1" source="8Tk4UFQ8TMU7V8v94MP9-6" target="8Tk4UFQ8TMU7V8v94MP9-21">
          <mxGeometry relative="1" as="geometry" />
        </mxCell>
        <mxCell id="8Tk4UFQ8TMU7V8v94MP9-25" style="edgeStyle=orthogonalEdgeStyle;rounded=0;orthogonalLoop=1;jettySize=auto;html=1;entryX=1;entryY=0.5;entryDx=0;entryDy=0;" edge="1" parent="1" source="8Tk4UFQ8TMU7V8v94MP9-6" target="8Tk4UFQ8TMU7V8v94MP9-19">
          <mxGeometry relative="1" as="geometry" />
        </mxCell>
        <mxCell id="8Tk4UFQ8TMU7V8v94MP9-29" style="edgeStyle=orthogonalEdgeStyle;rounded=0;orthogonalLoop=1;jettySize=auto;html=1;entryX=0;entryY=0.5;entryDx=0;entryDy=0;" edge="1" parent="1" source="8Tk4UFQ8TMU7V8v94MP9-6" target="8Tk4UFQ8TMU7V8v94MP9-26">
          <mxGeometry relative="1" as="geometry" />
        </mxCell>
        <mxCell id="8Tk4UFQ8TMU7V8v94MP9-30" style="edgeStyle=orthogonalEdgeStyle;rounded=0;orthogonalLoop=1;jettySize=auto;html=1;entryX=0;entryY=0.5;entryDx=0;entryDy=0;" edge="1" parent="1" source="8Tk4UFQ8TMU7V8v94MP9-6" target="8Tk4UFQ8TMU7V8v94MP9-27">
          <mxGeometry relative="1" as="geometry" />
        </mxCell>
        <mxCell id="8Tk4UFQ8TMU7V8v94MP9-33" style="edgeStyle=orthogonalEdgeStyle;rounded=0;orthogonalLoop=1;jettySize=auto;html=1;entryX=0;entryY=0.5;entryDx=0;entryDy=0;" edge="1" parent="1" source="8Tk4UFQ8TMU7V8v94MP9-6" target="8Tk4UFQ8TMU7V8v94MP9-28">
          <mxGeometry relative="1" as="geometry" />
        </mxCell>
        <mxCell id="8Tk4UFQ8TMU7V8v94MP9-6" value="&lt;font size=&quot;4&quot; face=&quot;Times New Roman&quot;&gt;策略优化&lt;/font&gt;" style="rounded=1;whiteSpace=wrap;html=1;fillColor=#fad7ac;strokeColor=#b46504;" vertex="1" parent="1">
          <mxGeometry x="100" y="300" width="90" height="50" as="geometry" />
        </mxCell>
        <mxCell id="8Tk4UFQ8TMU7V8v94MP9-42" style="edgeStyle=orthogonalEdgeStyle;rounded=0;orthogonalLoop=1;jettySize=auto;html=1;entryX=1;entryY=0.5;entryDx=0;entryDy=0;" edge="1" parent="1" source="8Tk4UFQ8TMU7V8v94MP9-8" target="8Tk4UFQ8TMU7V8v94MP9-26">
          <mxGeometry relative="1" as="geometry" />
        </mxCell>
        <mxCell id="8Tk4UFQ8TMU7V8v94MP9-43" style="edgeStyle=orthogonalEdgeStyle;rounded=0;orthogonalLoop=1;jettySize=auto;html=1;entryX=0;entryY=0.5;entryDx=0;entryDy=0;" edge="1" parent="1" source="8Tk4UFQ8TMU7V8v94MP9-8" target="8Tk4UFQ8TMU7V8v94MP9-38">
          <mxGeometry relative="1" as="geometry" />
        </mxCell>
        <mxCell id="8Tk4UFQ8TMU7V8v94MP9-44" style="edgeStyle=orthogonalEdgeStyle;rounded=0;orthogonalLoop=1;jettySize=auto;html=1;entryX=0;entryY=0.5;entryDx=0;entryDy=0;" edge="1" parent="1" source="8Tk4UFQ8TMU7V8v94MP9-8" target="8Tk4UFQ8TMU7V8v94MP9-39">
          <mxGeometry relative="1" as="geometry" />
        </mxCell>
        <mxCell id="8Tk4UFQ8TMU7V8v94MP9-45" style="edgeStyle=orthogonalEdgeStyle;rounded=0;orthogonalLoop=1;jettySize=auto;html=1;entryX=1;entryY=0.5;entryDx=0;entryDy=0;" edge="1" parent="1" source="8Tk4UFQ8TMU7V8v94MP9-8" target="8Tk4UFQ8TMU7V8v94MP9-27">
          <mxGeometry relative="1" as="geometry" />
        </mxCell>
        <mxCell id="8Tk4UFQ8TMU7V8v94MP9-46" style="edgeStyle=orthogonalEdgeStyle;rounded=0;orthogonalLoop=1;jettySize=auto;html=1;entryX=1;entryY=0.5;entryDx=0;entryDy=0;" edge="1" parent="1" source="8Tk4UFQ8TMU7V8v94MP9-8" target="8Tk4UFQ8TMU7V8v94MP9-28">
          <mxGeometry relative="1" as="geometry" />
        </mxCell>
        <mxCell id="8Tk4UFQ8TMU7V8v94MP9-48" style="edgeStyle=orthogonalEdgeStyle;rounded=0;orthogonalLoop=1;jettySize=auto;html=1;entryX=0;entryY=0.5;entryDx=0;entryDy=0;" edge="1" parent="1" source="8Tk4UFQ8TMU7V8v94MP9-8" target="8Tk4UFQ8TMU7V8v94MP9-41">
          <mxGeometry relative="1" as="geometry" />
        </mxCell>
        <mxCell id="8Tk4UFQ8TMU7V8v94MP9-61" style="edgeStyle=orthogonalEdgeStyle;rounded=0;orthogonalLoop=1;jettySize=auto;html=1;entryX=0;entryY=0.5;entryDx=0;entryDy=0;" edge="1" parent="1" source="8Tk4UFQ8TMU7V8v94MP9-8" target="8Tk4UFQ8TMU7V8v94MP9-40">
          <mxGeometry relative="1" as="geometry" />
        </mxCell>
        <mxCell id="8Tk4UFQ8TMU7V8v94MP9-8" value="&lt;font size=&quot;4&quot; face=&quot;Times New Roman&quot;&gt;Q学习&lt;/font&gt;" style="rounded=1;whiteSpace=wrap;html=1;fillColor=#fad7ac;strokeColor=#b46504;" vertex="1" parent="1">
          <mxGeometry x="250" y="300" width="90" height="50" as="geometry" />
        </mxCell>
        <mxCell id="8Tk4UFQ8TMU7V8v94MP9-56" style="edgeStyle=orthogonalEdgeStyle;rounded=0;orthogonalLoop=1;jettySize=auto;html=1;entryX=0;entryY=0.5;entryDx=0;entryDy=0;" edge="1" parent="1" source="8Tk4UFQ8TMU7V8v94MP9-10" target="8Tk4UFQ8TMU7V8v94MP9-49">
          <mxGeometry relative="1" as="geometry" />
        </mxCell>
        <mxCell id="8Tk4UFQ8TMU7V8v94MP9-57" style="edgeStyle=orthogonalEdgeStyle;rounded=0;orthogonalLoop=1;jettySize=auto;html=1;entryX=0;entryY=0.5;entryDx=0;entryDy=0;" edge="1" parent="1" source="8Tk4UFQ8TMU7V8v94MP9-10" target="8Tk4UFQ8TMU7V8v94MP9-50">
          <mxGeometry relative="1" as="geometry" />
        </mxCell>
        <mxCell id="8Tk4UFQ8TMU7V8v94MP9-58" style="edgeStyle=orthogonalEdgeStyle;rounded=0;orthogonalLoop=1;jettySize=auto;html=1;entryX=0;entryY=0.5;entryDx=0;entryDy=0;" edge="1" parent="1" source="8Tk4UFQ8TMU7V8v94MP9-10" target="8Tk4UFQ8TMU7V8v94MP9-51">
          <mxGeometry relative="1" as="geometry" />
        </mxCell>
        <mxCell id="8Tk4UFQ8TMU7V8v94MP9-59" style="edgeStyle=orthogonalEdgeStyle;rounded=0;orthogonalLoop=1;jettySize=auto;html=1;entryX=0;entryY=0.5;entryDx=0;entryDy=0;" edge="1" parent="1" source="8Tk4UFQ8TMU7V8v94MP9-10" target="8Tk4UFQ8TMU7V8v94MP9-52">
          <mxGeometry relative="1" as="geometry" />
        </mxCell>
        <mxCell id="8Tk4UFQ8TMU7V8v94MP9-10" value="&lt;font size=&quot;4&quot; face=&quot;Times New Roman&quot;&gt;学习模型&lt;/font&gt;" style="rounded=1;whiteSpace=wrap;html=1;fillColor=#fad7ac;strokeColor=#b46504;" vertex="1" parent="1">
          <mxGeometry x="400" y="300" width="90" height="50" as="geometry" />
        </mxCell>
        <mxCell id="8Tk4UFQ8TMU7V8v94MP9-63" style="edgeStyle=orthogonalEdgeStyle;rounded=0;orthogonalLoop=1;jettySize=auto;html=1;" edge="1" parent="1" source="8Tk4UFQ8TMU7V8v94MP9-11" target="8Tk4UFQ8TMU7V8v94MP9-54">
          <mxGeometry relative="1" as="geometry" />
        </mxCell>
        <mxCell id="8Tk4UFQ8TMU7V8v94MP9-11" value="&lt;font size=&quot;4&quot; face=&quot;Times New Roman&quot;&gt;拥有模型&lt;/font&gt;" style="rounded=1;whiteSpace=wrap;html=1;fillColor=#fad7ac;strokeColor=#b46504;" vertex="1" parent="1">
          <mxGeometry x="580" y="300" width="90" height="50" as="geometry" />
        </mxCell>
        <mxCell id="8Tk4UFQ8TMU7V8v94MP9-18" value="&lt;font size=&quot;4&quot; face=&quot;Times New Roman&quot;&gt;策略梯度&lt;/font&gt;" style="rounded=1;whiteSpace=wrap;html=1;fillColor=#b1ddf0;strokeColor=#10739e;" vertex="1" parent="1">
          <mxGeometry x="40" y="370" width="80" height="40" as="geometry" />
        </mxCell>
        <mxCell id="8Tk4UFQ8TMU7V8v94MP9-19" value="&lt;font size=&quot;4&quot; face=&quot;Times New Roman&quot;&gt;A2C/A3C&lt;/font&gt;" style="rounded=1;whiteSpace=wrap;html=1;fillColor=#b1ddf0;strokeColor=#10739e;" vertex="1" parent="1">
          <mxGeometry x="40" y="520" width="80" height="40" as="geometry" />
        </mxCell>
        <mxCell id="8Tk4UFQ8TMU7V8v94MP9-20" value="&lt;font size=&quot;4&quot; face=&quot;Times New Roman&quot;&gt;PPO&lt;/font&gt;" style="rounded=1;whiteSpace=wrap;html=1;fillColor=#b1ddf0;strokeColor=#10739e;" vertex="1" parent="1">
          <mxGeometry x="40" y="420" width="80" height="40" as="geometry" />
        </mxCell>
        <mxCell id="8Tk4UFQ8TMU7V8v94MP9-21" value="&lt;font size=&quot;4&quot; face=&quot;Times New Roman&quot;&gt;TRPO&lt;/font&gt;" style="rounded=1;whiteSpace=wrap;html=1;fillColor=#b1ddf0;strokeColor=#10739e;" vertex="1" parent="1">
          <mxGeometry x="40" y="470" width="80" height="40" as="geometry" />
        </mxCell>
        <mxCell id="8Tk4UFQ8TMU7V8v94MP9-27" value="&lt;font size=&quot;4&quot; face=&quot;Times New Roman&quot;&gt;TD3&lt;/font&gt;" style="rounded=1;whiteSpace=wrap;html=1;fillColor=#b1ddf0;strokeColor=#10739e;" vertex="1" parent="1">
          <mxGeometry x="170" y="440" width="80" height="40" as="geometry" />
        </mxCell>
        <mxCell id="8Tk4UFQ8TMU7V8v94MP9-28" value="&lt;font size=&quot;4&quot; face=&quot;Times New Roman&quot;&gt;SAC&lt;/font&gt;" style="rounded=1;whiteSpace=wrap;html=1;fillColor=#b1ddf0;strokeColor=#10739e;" vertex="1" parent="1">
          <mxGeometry x="170" y="490" width="80" height="40" as="geometry" />
        </mxCell>
        <mxCell id="8Tk4UFQ8TMU7V8v94MP9-32" value="" style="edgeStyle=orthogonalEdgeStyle;rounded=0;orthogonalLoop=1;jettySize=auto;html=1;entryX=0;entryY=0.5;entryDx=0;entryDy=0;" edge="1" parent="1" source="8Tk4UFQ8TMU7V8v94MP9-6" target="8Tk4UFQ8TMU7V8v94MP9-26">
          <mxGeometry relative="1" as="geometry">
            <mxPoint x="190" y="325" as="sourcePoint" />
            <mxPoint x="220" y="525" as="targetPoint" />
          </mxGeometry>
        </mxCell>
        <mxCell id="8Tk4UFQ8TMU7V8v94MP9-26" value="&lt;font size=&quot;4&quot; face=&quot;Times New Roman&quot;&gt;DDPG&lt;/font&gt;" style="rounded=1;whiteSpace=wrap;html=1;fillColor=#b1ddf0;strokeColor=#10739e;" vertex="1" parent="1">
          <mxGeometry x="170" y="390" width="80" height="40" as="geometry" />
        </mxCell>
        <mxCell id="8Tk4UFQ8TMU7V8v94MP9-38" value="&lt;font size=&quot;4&quot; face=&quot;Times New Roman&quot;&gt;DQN&lt;/font&gt;" style="rounded=1;whiteSpace=wrap;html=1;fillColor=#b1ddf0;strokeColor=#10739e;" vertex="1" parent="1">
          <mxGeometry x="320" y="370" width="80" height="40" as="geometry" />
        </mxCell>
        <mxCell id="8Tk4UFQ8TMU7V8v94MP9-39" value="&lt;font size=&quot;4&quot; face=&quot;Times New Roman&quot;&gt;C51&lt;/font&gt;" style="rounded=1;whiteSpace=wrap;html=1;fillColor=#b1ddf0;strokeColor=#10739e;" vertex="1" parent="1">
          <mxGeometry x="320" y="420" width="80" height="40" as="geometry" />
        </mxCell>
        <mxCell id="8Tk4UFQ8TMU7V8v94MP9-40" value="&lt;font size=&quot;4&quot; face=&quot;Times New Roman&quot;&gt;QR-DQN&lt;/font&gt;" style="rounded=1;whiteSpace=wrap;html=1;fillColor=#b1ddf0;strokeColor=#10739e;" vertex="1" parent="1">
          <mxGeometry x="320" y="470" width="80" height="40" as="geometry" />
        </mxCell>
        <mxCell id="8Tk4UFQ8TMU7V8v94MP9-41" value="&lt;font size=&quot;4&quot; face=&quot;Times New Roman&quot;&gt;HER&lt;/font&gt;" style="rounded=1;whiteSpace=wrap;html=1;fillColor=#b1ddf0;strokeColor=#10739e;" vertex="1" parent="1">
          <mxGeometry x="320" y="520" width="80" height="40" as="geometry" />
        </mxCell>
        <mxCell id="8Tk4UFQ8TMU7V8v94MP9-49" value="&lt;font size=&quot;4&quot; face=&quot;Times New Roman&quot;&gt;World Models&lt;/font&gt;" style="rounded=1;whiteSpace=wrap;html=1;fillColor=#b1ddf0;strokeColor=#10739e;" vertex="1" parent="1">
          <mxGeometry x="470" y="360" width="80" height="40" as="geometry" />
        </mxCell>
        <mxCell id="8Tk4UFQ8TMU7V8v94MP9-50" value="&lt;font size=&quot;4&quot; face=&quot;Times New Roman&quot;&gt;I2A&lt;/font&gt;&lt;span style=&quot;caret-color: rgba(0, 0, 0, 0); color: rgba(0, 0, 0, 0); font-family: monospace; font-size: 0px; text-align: start; white-space: nowrap;&quot;&gt;%3CmxGraphModel%3E%3Croot%3E%3CmxCell%20id%3D%220%22%2F%3E%3CmxCell%20id%3D%221%22%20parent%3D%220%22%2F%3E%3CmxCell%20id%3D%222%22%20value%3D%22%26lt%3Bfont%20size%3D%26quot%3B4%26quot%3B%20face%3D%26quot%3BTimes%20New%20Roman%26quot%3B%26gt%3Bworld%20models%26lt%3B%2Ffont%26gt%3B%22%20style%3D%22rounded%3D1%3BwhiteSpace%3Dwrap%3Bhtml%3D1%3BfillColor%3D%23b1ddf0%3BstrokeColor%3D%2310739e%3B%22%20vertex%3D%221%22%20parent%3D%221%22%3E%3CmxGeometry%20x%3D%22455%22%20y%3D%22400%22%20width%3D%2280%22%20height%3D%2240%22%20as%3D%22geometry%22%2F%3E%3C%2FmxCell%3E%3C%2Froot%3E%3C%2FmxGraphModel%3E&lt;/span&gt;" style="rounded=1;whiteSpace=wrap;html=1;fillColor=#b1ddf0;strokeColor=#10739e;" vertex="1" parent="1">
          <mxGeometry x="470" y="410" width="80" height="40" as="geometry" />
        </mxCell>
        <mxCell id="8Tk4UFQ8TMU7V8v94MP9-51" value="&lt;font size=&quot;4&quot; face=&quot;Times New Roman&quot;&gt;MBMF&lt;/font&gt;" style="rounded=1;whiteSpace=wrap;html=1;fillColor=#b1ddf0;strokeColor=#10739e;" vertex="1" parent="1">
          <mxGeometry x="470" y="460" width="80" height="40" as="geometry" />
        </mxCell>
        <mxCell id="8Tk4UFQ8TMU7V8v94MP9-52" value="&lt;font size=&quot;4&quot; face=&quot;Times New Roman&quot;&gt;MBVE&lt;/font&gt;" style="rounded=1;whiteSpace=wrap;html=1;fillColor=#b1ddf0;strokeColor=#10739e;" vertex="1" parent="1">
          <mxGeometry x="470" y="510" width="80" height="40" as="geometry" />
        </mxCell>
        <mxCell id="8Tk4UFQ8TMU7V8v94MP9-54" value="&lt;font size=&quot;4&quot; face=&quot;Times New Roman&quot;&gt;AlphazZero&lt;/font&gt;" style="rounded=1;whiteSpace=wrap;html=1;fillColor=#b1ddf0;strokeColor=#10739e;" vertex="1" parent="1">
          <mxGeometry x="580" y="380" width="90" height="40" as="geometry" />
        </mxCell>
      </root>
    </mxGraphModel>
  </diagram>
</mxfile>
